<?xml version="1.0" encoding="utf-8"?>
<!-- Generator: Adobe Illustrator 26.1.0, SVG Export Plug-In . SVG Version: 6.00 Build 0)  -->
<svg version="1.1" id="Capa_1" xmlns="http://www.w3.org/2000/svg" xmlns:xlink="http://www.w3.org/1999/xlink" x="0px" y="0px"
	 viewBox="0 0 595.28 467.85" style="enable-background:new 0 0 595.28 467.85;" xml:space="preserve">
<style type="text/css">
	.st0{fill:#322D2B;}
</style>
<g>
	<g>
		<path class="st0" d="M78.85,255.21h11.58v103.75H78.85V255.21z"/>
		<path class="st0" d="M111.35,255.21h11.14l57.14,84.01v-84.01h11.58v103.75h-11.13l-57.15-84.16v84.16h-11.58V255.21z"/>
		<path class="st0" d="M211.98,255.21h11.14l57.14,84.01v-84.01h11.58v103.75h-11.13l-57.15-84.16v84.16h-11.58V255.21z"/>
		<path class="st0" d="M335.2,352.49c-7.92-4.31-14.16-10.41-18.72-18.29c-4.55-7.87-6.83-16.89-6.83-27.04s2.28-19.16,6.83-27.04
			c4.56-7.88,10.77-14,18.65-18.36c7.88-4.36,16.74-6.54,26.62-6.54c9.86,0,18.73,2.18,26.61,6.54
			c7.88,4.37,14.09,10.49,18.65,18.36c4.55,7.88,6.83,16.89,6.83,27.04s-2.28,19.17-6.83,27.04c-4.56,7.88-10.79,13.97-18.72,18.29
			c-7.92,4.32-16.77,6.48-26.54,6.48C351.97,358.97,343.12,356.81,335.2,352.49z M382.52,343.88c6.26-3.42,11.19-8.28,14.8-14.59
			c3.6-6.31,5.41-13.69,5.41-22.13c0-8.35-1.78-15.68-5.34-21.99c-3.56-6.31-8.45-11.19-14.66-14.66
			c-6.22-3.46-13.12-5.19-20.71-5.19c-7.68,0-14.66,1.71-20.92,5.12c-6.26,3.42-11.22,8.3-14.87,14.66
			c-3.65,6.36-5.48,13.71-5.48,22.06c0,8.44,1.8,15.82,5.41,22.13c3.6,6.31,8.54,11.17,14.8,14.59c6.26,3.41,13.19,5.12,20.78,5.12
			C369.33,349,376.25,347.29,382.52,343.88z"/>
		<path class="st0" d="M423.5,255.21h12.17l34.58,87.73l34.73-87.73h12.17l-41.41,103.75h-10.84L423.5,255.21z"/>
	</g>
	<g>
		<path class="st0" d="M42.1,364.92h29.92l41.95,102.94H82.09l-7.82-19.58H39.84l-7.97,19.58H0L42.1,364.92z M67.05,425.14
			l-10.07-28.86l-10.08,28.86H67.05z"/>
		<path class="st0" d="M122.98,364.92h48.86c12.63,0,22.61,3.12,29.92,9.35c7.32,6.23,10.98,15.24,10.98,27.03
			c0,7.66-1.63,14.19-4.89,19.58c-3.25,5.41-7.89,9.53-13.91,12.37l17.59,34.61h-31.87l-15.34-30.19h-10.22v30.19h-31.12V364.92z
			 M165.69,413.52c4.81,0,8.54-0.91,11.2-2.73c2.65-1.81,3.98-4.97,3.98-9.49c0-4.52-1.33-7.68-3.98-9.5
			c-2.66-1.81-6.39-2.72-11.2-2.72h-11.58v24.45H165.69z"/>
		<path class="st0" d="M239.51,390.54h-28.27v-25.62h87.66v25.62h-28.27v77.31h-31.12V390.54z"/>
		<path class="st0" d="M305.67,364.92h76.23v25.62h-45.11v14.13h32.48v23.42h-32.48v14.14h45.11v25.62h-76.23V364.92z"/>
		<path class="st0" d="M414.18,461.65c-8.36-4.15-14.8-10.08-19.32-17.8c-4.52-7.71-6.78-16.85-6.78-27.39
			c0-10.54,2.25-19.7,6.78-27.46c4.52-7.76,10.95-13.71,19.32-17.86c8.36-4.14,18.11-6.22,29.27-6.22c7.21,0,13.64,0.67,19.32,1.98
			c5.67,1.32,10.96,3.45,15.86,6.35v26.97c-4.23-3.19-8.99-5.5-14.27-6.92s-11.39-2.11-18.31-2.11c-9.03,0-15.89,2.11-20.54,6.35
			c-4.66,4.24-6.99,10.54-6.99,18.91c0,8.39,2.4,14.72,7.21,18.99c4.8,4.29,11.58,6.42,20.33,6.42c6.82,0,12.95-0.75,18.38-2.25
			c5.43-1.51,10.54-3.91,15.35-7.2v26.83c-9.33,5.75-21.43,8.61-36.33,8.61C432.3,467.85,422.54,465.79,414.18,461.65z"/>
		<path class="st0" d="M524.13,364.92h29.92L596,467.85h-31.87l-7.82-19.58h-34.43l-7.97,19.58h-31.87L524.13,364.92z
			 M549.09,425.14l-10.07-28.86l-10.08,28.86H549.09z"/>
	</g>
	<path class="st0" d="M508.69,250.88c-0.13-0.29-0.24-0.58-0.41-0.85c-0.11-0.16-0.14-0.34-0.18-0.53h-0.09
		c-0.13-0.26-0.24-0.54-0.39-0.78c-0.96-1.61-2.22-3-3.3-4.73c-1.41-2.26-2.62-4.65-4.22-6.78c-2.38-3.17-5.3-6.03-8.94-7.72
		c-4.77-2.21-7.03-5.08-8.1-9.93c2.4,0.35,3.62,2.69,5.79,3.18c0.72-0.29,1.25-0.11,1.56,0.62c3.8,0.72,6.14,3.51,8.62,6.09
		c0.2,0.24,0.4,0.47,0.6,0.71c0.27-0.2,0.53-0.4,0.8-0.6c0.01-1.02,0.02-2.03,0.03-3.05c0-0.26,0-0.52,0-0.77
		c-2.14-7.86-7.5-12.35-15.05-14.77c-1.55-0.5-4.54,0.57-4.26-2.94c0.17-2.15-0.12-4.34,1.44-6.15c1.89-2.18,4.26-3.58,7-4.41
		c1.02-0.31,2.21-0.25,2.96-1.28c-10.08-3.79-16.21-0.98-20.91,9.61c-2.11-0.97-3.62-3.28-6.36-2.98c0.14,2.64,0.14,5.22-1.88,7.58
		c-0.9-1.42-1.65-2.58-2.39-3.76c-1.9-3.01-3.14-7.01-5.84-8.79c-3.87-2.54-2.85-5.41-2.95-8.79c2.35,0.91,3.67,2.45,5.15,3.82
		c1.17,1.08,2.04,3.46,3.65,2.83c1.51-0.59,0.85-2.96,1.01-4.58c0.01-0.15,0.29-0.28,0.45-0.42c4.28,2.31,5.54,6.79,7.48,11.27
		c2.44-8.12-1.45-12.72-7.25-16.42c-1.61-1.24-4.61-0.87-4.59-3.99c-1.49-0.32-3.02-0.56-3.99-2.01c0.01-1.27,1.21-1.04,1.88-1.45
		c0.79-0.48,0.93-1.18,0.69-1.96c-0.22-0.72-0.89-0.84-1.55-0.85c-2.04-0.02-4.08,0.01-6.11-0.02c-0.88-0.01-1.98,0.06-2.26-1
		c-0.34-1.3,0.86-1.63,1.73-2.12c2.62-1.48,5.17-1.82,7.92-0.14c0.95,0.58,2.46,1.68,3.44,0.38c1.03-1.37-0.34-2.52-1.16-3.64
		c-1.54-2.08-3.59-3.58-5.62-5.12c-0.81-0.1-1.63-0.2-2.44-0.3c-1.46-0.12-2.92-0.24-4.38-0.36c-2.66,0.1-4.64,1.76-6.96,3.13
		c-0.84-4.42-4.39-5.46-7.94-6.51c-1.26,0.07-2.54-0.01-3.76,0.23c-3.27,0.63-5.56,0.19-5.69-3.89c-0.07-2.13-1.53-3.76-3.65-3.54
		c-3.32,0.34-5.05-1.21-6.24-3.93c-1.17,0.1-2.1-0.29-2.7-1.34c-1.27-6.61-5.03-12.03-8.46-17.59c-0.87-1.42-2.57-1.49-4.08-1.65
		c-7.92-0.83-8.24-1.14-9.13-9.11c-0.24-0.58-0.7-1.17,0.04-1.73c-0.2-1.63-1.24-2.95-1.52-4.62c-0.38-2.32-2.36-3.15-4.62-3.07
		c-2.74,0.09-4.03-1.07-4.55-3.92c-0.6-3.32-1.93-6.51-2.94-9.76c-0.82-0.48-0.96-1.36-1.26-2.15c-5.27-0.69-8.39-3.24-8.84-8.95
		c-0.17-2.2-1.98-3.91-4.56-4.5c-1.74-0.4-2.23-2.06-2.69-3.57c-0.71-2.31-1.28-4.62-2.34-6.81c-0.86-1.79-2-3.47-3.49-4.79
		c-1.52-1.34-3.54-1.53-5.52-1.59c-2.95-0.1-4.39-1.44-4.23-4.52c0.21-3.86-1.28-7.59,0.15-11.61c2.06-5.79,2.4-11.99,2.09-18.13
		c-0.15-2.91-2.73-1.91-4.15-1.61c-3.67,0.79-3.21-0.52-2.93-3.49c0.51-5.5,4.11-9.99,3.97-15.74c-0.14-5.64-2.78-8.74-8.27-7.2
		c-2.92,0.82-5.52,1.73-8.28-0.19c-0.45-0.31-1.28-0.3-1.87-0.16c-4.24,0.97-8.34,1.3-12.59-0.43c-1.88-0.77-3.89,0.72-5.44,2.15
		c-1.54,1.42-3.21,2.55-5.47,2.08c-2.54,0.66-4.72,0.4-6.24-2.11c-1.25-2.07-3.12-2.54-5.24-1.48c-2.48,1.24-4.89,0.95-7.33-0.03
		c-2.41-0.97-4.72-0.89-6.8,0.75c-1.42,1.12-2.79,0.73-4.37,0.29c-1.88-0.52-5.3,0.12-7.06,0.9c-2.01,0.89-3.13,2.56-3.01,4.76
		c0.11,2.05,0.87,4,1.48,5.94c0.83,2.67,1.62,5.36,2.32,8.07c0.71,2.76,2.08,6.72-3.43,6.79c-0.83,0.01-1.35,0.92-1.37,1.65
		c-0.08,3.88-1.35,7.85,0.57,11.61c3.35,6.55,3.04,13.58,2.88,20.6c-0.04,1.59-0.93,1.89-2.23,1.88c-1.66-0.01-3.31-0.03-4.97,0.01
		c-5.07,0.13-7.05,1.82-8.05,6.85c-0.32,1.62-0.63,3.24-0.9,4.88c-0.16,0.94-0.41,1.84-1.49,1.94c-5.17,0.49-6.15,4.49-6.65,8.44
		c-0.46,3.61-1.56,5.97-5.62,6.14c-2.29,0.1-3.06,2.04-3.58,3.93c-1.01,3.67-1.97,7.36-2.88,11.06c-0.31,1.25-0.78,1.99-2.24,2.08
		c-2.72,0.16-5.87-0.85-7.93,1.66c-2.48,3.02-3.26,6.89-3.78,10.62c-0.39,2.75-0.52,4.71-4.14,4.68c-1.85-0.01-3.12,1.79-3.63,3.9
		c-1.15,4.69-2.57,9.31-3.76,13.99c-0.44,1.75-0.85,2.27-3.02,1.97c-6.38-0.88-9.95,0.09-11.66,7.46c-0.31,1.35-1.05,2.61-1.26,3.97
		c-0.66,4.23-2.13,6.98-7.31,6.09c-2.28-0.39-3.76,1.74-4.58,3.89c-1.11,2.9-2.35,5.34-6.2,3.27c-0.89-0.48-2.24-0.08-3.38-0.08
		c-1.1,2.63-2.31,4.37-5.47,1.98c-2.51-1.9-4.12,0.1-5.48,2.04c3.47,1.33,6.3,3.27,7.7,6.89c-6.09-3.03-11.98-6.54-17.93-0.03
		c0.17,0.14,0.33,0.28,0.47,0.45c2.7-0.33,5.27-1.92,8.17-0.92c-0.2,1.82-2.33,2.01-2.77,3.97h6.56c-3.17,2.99-7.28,4.35-9.92,7.43
		c-2.85,3.32-5.83,2.74-9.44,1.58c1.57-1.87,3.37-2.89,5.38-3.73c1.01-0.42,3.05-0.14,2.65-1.95c-0.38-1.72-1.95-2.66-3.83-2.51
		c-0.09,0.01-0.18,0.02-0.27,0.03c-0.04-0.03-0.08-0.05-0.11-0.04c-0.05,0.02-0.08,0.04-0.11,0.07c-2.77,0.29-5.36,1.22-7.88,3.04
		c-0.38-3.36,2.47-5.54,2.23-8.51c-1.92-0.03-2.52,1.33-3.24,2.5c-0.72,1.18-1.4,2.38-2.11,3.6c-8.17-6.74-10.41-7.24-18.75-4.26
		c0.46,1.42,1.64,1.18,2.73,1.24c4.42,0.25,6.79,3.62,9.06,6.62c1.64,2.17,0.04,3.77-2.8,3.66c-7.03-0.26-12.79,2.26-17.3,8.62
		c2.84-0.26,4.86-2.23,7.28-1.21c1.28,0,2.56,0.01,3.84,0.01c1.69,0.04,3.41-0.88,5.49,0.35c-1.39,0.86-2.58,1.59-3.76,2.32
		c-3.12,2.2-6.32,4.29-8.62,7.43c-1.73,2.37-2.94,4.9-2.52,8.79c2.74-4.1,4.88-7.94,9.78-8.46c0.61,2-0.7,4.13,0.76,6.22
		c2.66-2.67,5.22-5.24,8.23-8.24c-0.4,5.19,0.96,10.01-2.02,14.42c-0.8,1.19-1.16,2.38-2.99,2.3c-4.36-0.17-7.3,2.31-8.88,6.01
		c-0.96,2.26-2.2,2.6-4.27,2.54c-3.98-0.12-6.81,1.63-8.06,5.57c-0.4,1.26-1.14,2.11-2.38,2.75c-2.45,1.28-3.33,3.57-3.69,6.12h-0.2
		v1.88h421.92C508.87,251.22,508.77,251.05,508.69,250.88z M477.7,239.37c-9.8,0.85-7.82-7.6-11.09-11.39
		C474.43,227.53,473.19,235.49,477.7,239.37z M449.5,237.93c4.58,0.17,9.18,0.13,13.75,0.36c1.67,0.09,4.19,0.08,3.93,2.54
		c-0.26,2.53-2.63,1.32-4.05,1.16c-6.56-0.75-13.09-1.67-19.64-2.52c-0.63-0.08-1.32,0.05-1.89-0.17c-1.79-0.7-4.04,1.91-4.32,0.99
		c-0.9-3.02-4-4.64-4.44-7.77c-2.62-1.52-4.87-1.45-7.8,0.11c-2.6,1.39-5.95,1.64-9.12-0.31c-1.55-0.95-3.97-0.45-5.99-0.66
		c-1.14-0.11-2.26-0.3-3.39-0.49c-1.17-0.2-1.92-0.95-1.76-2.1c0.17-1.26,1.37-0.88,2.17-0.9c5.1-0.08,10.19-0.13,15.29-0.14
		c11.34-0.03,22.68-0.05,34.02-0.06c5.83-0.01,5.87-0.01,6.68,6.05c0.1,0.72,1.02,1.24,0.17,2.48h-17.7
		C446.69,238.5,448.23,237.88,449.5,237.93z M452.23,215.02c0.69,1.07,1.21,2.18,1.03,3.46c-8.91,1.38-17.78,0.84-26.64,0.23
		l-1.05-0.04c-0.44,0.04-0.89,0.07-1.33,0.11c-1.66,0.03-3.37,0.5-4.87-0.65c-1.29,1.2-2.91,0.73-4.37,0.74
		c-11.71,0.05-23.41,0.05-35.12,0.03c-6.58-0.02-13.16-0.18-19.74-0.16c-3.24,0.01-5.06-1-4.52-4.64c0.29-1.92,0.18-3.84-2.16-4.66
		c-1.15-0.41-1.46-1.35-1.28-2.46c0.27-1.64,1.64-1.37,2.7-1.37c9.93,0.04,19.86,0.12,29.79,0.2c0.17-0.06,0.33-0.13,0.48-0.22
		c3.67-0.77,7.35-0.53,11.04-0.22c3.18,0.19,6.37,0.38,9.55,0.57l0.16,0.04c3.4-1.2,6.95-0.31,10.41-0.73
		c0.15-0.1,0.3-0.1,0.45-0.01c1.13,0.01,2.25,0.01,3.38,0.02c0.17-0.1,0.34-0.09,0.5,0.02c1.35,0.36,2.89-0.35,4.12,0.72
		c0.13-0.12,0.27-0.12,0.42-0.02c0.14-0.11,0.2-0.26,0.2-0.44l0.6-0.14c0.6,0,1.21,0,1.81,0c1.17-0.46,2.36-0.42,3.56-0.12
		c0.58,0.01,1.15,0.01,1.73,0.02c4.71-0.59,9.42-0.23,14.14-0.17c0.7-0.03,1.53-0.35,1.75,0.75c0.3,0.98,0.61,1.97,0.91,2.96
		C451.06,210.74,451.83,212.81,452.23,215.02z M261.43,230.03c0.52-0.68,0.89-1.46,1.38-2.16c0.24-2.26,3.02-1.27,4.63-1.27
		c24.06-0.08,48.11-0.1,72.16,0.61c1.71,0.05,3.7-0.43,4.29,2.12c-0.01,0-0.03,0-0.04,0.01c0.08,0.13,0.17,0.27,0.25,0.41
		c0.23,0.4,0.45,0.81,0.74,1.18c-0.06-0.07-0.12-0.15-0.17-0.22c0.17,0.18,0.28,0.41,0.37,0.63c0.29,0.17,0.49,0.53,0.52,1.22
		c0.11,2.18-2.74,1.26-4.06,1.2c-15.41-0.65-30.81-0.18-46.22-0.26c-10.45-0.05-20.89-0.05-31.34-0.16
		c-1.2-0.01-3.37,0.86-3.49-0.82c-0.05-0.77,0.18-1.18,0.54-1.41c0.01-0.22,0.04-0.43,0.14-0.62c0.07-0.2,0.19-0.37,0.34-0.53
		C261.46,230,261.45,230.01,261.43,230.03z M270.8,203.57c0.08,0.81,0.01,1.64-0.04,2.46c0.09,0.38,0.16,0.77,0.16,1.32
		c-0.02,3.08-1.91,2.32-3.54,2.32c-3.67,0.01-7.35-0.18-11.01-0.02c-2.61,0.11-3.28-1.17-3.34-3.41c-0.01-0.53,0.07-0.9,0.2-1.19
		c0-0.24-0.01-0.48,0.04-0.74c0.21-0.9,0.81-1.69,1.37-2.39c0.23-0.29,0.48-0.59,0.76-0.86c0-0.01-0.01-0.02,0-0.03
		c0.16-1.21,0.09-2.73,1.85-2.84c4.03-0.25,8.07-0.43,12.11-0.59c1.79-0.07,1.48,1.31,1.53,2.4c0.02,0.34,0.03,0.68,0.01,1
		c0.03,0.22,0.01,0.44-0.03,0.66c0.02,0.22,0.06,0.43,0.05,0.65c-0.01,0.4-0.07,0.81-0.13,1.21
		C270.8,203.55,270.8,203.56,270.8,203.57z M261.86,161.02c-0.08-0.32-0.13-0.72-0.14-1.2c-0.05-3.84,2.49-2.94,4.69-3.13
		c1.63,0.28,4.02-0.91,3.97,2.66c0,0.35-0.05,0.63-0.1,0.9c0.03,0.36,0.01,0.72-0.06,1.07c-0.02,0.08-0.06,0.16-0.09,0.24
		c0,0.11,0.04,0.21,0.01,0.32c0,0.03-0.02,0.05-0.03,0.08c0.1,0.52,0.21,1.04,0.27,1.57c0.05,0.43,0.01,0.88-0.09,1.32
		c0,0.24-0.02,0.51-0.09,0.81c0.07,0.9-0.17,1.87-0.41,2.77c-0.03,0.09-0.05,0.19-0.07,0.28c0.01,0.25-0.01,0.51,0,0.76
		c0.01,0.17,0.02,0.34,0.03,0.5c0,0.05,0,0.05,0.01,0.08c0,0.01,0,0,0.01,0.02c0.01,0.03,0.1,0.42,0.1,0.41
		c-0.03-0.07-0.04-0.09-0.06-0.13c0.02,0.1,0.04,0.19,0.05,0.29c0.11,0.26,0.24,0.51,0.22,0.79c0.21,0.93,0.09,1.67-0.44,2.17
		c-0.07,0-0.14,0-0.21,0c-1.55,0.01-3.1-0.02-4.65,0.02c-1.08,0.02-2.44-0.44-2.75,1.01c-0.77-0.03-1.37-0.43-1.39-2.06
		c-0.02-1.4,0.06-2.62,0.67-3.41c0.08-0.34,0.2-0.68,0.32-1.03c0.02-0.06,0.03-0.12,0.05-0.17c0-0.18,0.01-0.36,0.01-0.54
		c-0.01-0.4-0.02-0.8,0.02-1.21c0.03-0.35,0.08-0.7,0.13-1.05c0.01-0.08,0.02-0.11,0.02-0.12c0-0.02,0-0.02,0.01-0.07
		c0.04-0.42,0.03-0.82,0.02-1.24C261.87,162.82,261.89,161.92,261.86,161.02z M261.87,180.71c1.39,0.09,2.82,0.21,4.18-0.02
		c3.35-0.56,4.34,0.66,4.3,4.05c-0.02,2.13,0,3.42-0.28,4.23c-0.01,0.32-0.03,0.65-0.02,0.97c0,0.17,0,0.35-0.01,0.52
		c0.12,0.5,0.24,1,0.3,1.5c0.18,0.32,0.26,0.73,0.27,1.23c0.03,1.13-0.1,2.03-1.51,2.09c-3.54,0.16-7.08,0.36-10.62,0.5
		c-1.43,0.05-1.55-0.98-1.53-2.08c0-0.11,0.01-0.22,0.01-0.32c-0.03-0.18-0.05-0.37-0.03-0.56c0,0,0,0,0-0.01
		c-0.01-0.05-0.02-0.08-0.02-0.14c-0.02-0.19-0.01-0.37,0.01-0.55c0.07-0.6,0.17-1.17,0.37-1.73c0.01-0.02,0.02-0.03,0.02-0.05
		c-0.83-0.03-1.83-0.02-2.08-1.03c-0.28-1.14,0.41-2.11,1.46-2.34c2.22-0.49,2.71-1.96,2.62-3.9
		C259.26,181.29,260.11,180.59,261.87,180.71z M268.24,64.2c-5.31-1.02-4.23-4.06-4.27-7.18c-0.04-2.91,0.06-5.82,0.1-8.73
		c0.12-1.12,1.02-0.93,1.71-0.93c5.46,0.01,10.92,0.05,16.38,0.12v17.2c-2.05-0.7-4.06-0.22-6.09-0.22
		C273.34,65.94,271.04,64.73,268.24,64.2z M316.18,211.24c0.1,0.02,0.2,0.02,0.3,0.04c-0.1,0.06-0.19,0.08-0.29,0.14l0.06,3.19
		c0.07,0,0.14,0,0.2,0.01c0,0.39-0.01,0.78-0.01,1.17h-0.17l0.05,2.76h0.13c0,0.35-0.01,0.7-0.01,1.05c-0.04,0-0.07,0.01-0.11,0.01
		l0.07,3.81c-0.1,1.23-1.41,0.73-2.2,0.77c-8.89,0.44-17.73-0.88-26.62-0.86c-0.46,0-0.69-0.31-0.85-0.78
		c-0.21-0.22-0.34-0.48-0.43-0.77c-0.38-0.28-0.63-0.67-0.72-1.13l-0.02,0l0-0.18c-0.02-0.14-0.02-0.27-0.01-0.41l-0.12-4.27h-0.1
		c-0.03-0.5-0.06-1-0.09-1.5c0.05,0,0.1,0,0.15,0l-0.05-1.7c-0.08-0.03-0.14-0.09-0.21-0.14c0-0.06-0.01-0.11-0.01-0.17
		c-0.03-0.43-0.06-0.85-0.12-1.27c0.08-0.1,0.15-0.21,0.26-0.26c-0.11-0.77-0.14-1.56-0.11-2.34c-0.09-0.13-0.17-0.26-0.22-0.44
		c0.01-0.2,0.01-0.4,0.01-0.61c0.05-0.14,0.14-0.26,0.25-0.34l-0.07-2.51c-0.06-0.13-0.12-0.26-0.14-0.45c0-0.04-0.01-0.06-0.01-0.1
		c0.01-0.18,0.08-0.28,0.13-0.41l-0.08-2.86c-0.05-0.15-0.07-0.32-0.07-0.54c0-0.12,0.03-0.2,0.05-0.3l-0.09-3.04
		c-0.02-0.1-0.09-0.13-0.09-0.26c0-0.17,0.03-0.3,0.07-0.41l-0.08-2.97c-0.02-0.08-0.07-0.12-0.08-0.22
		c-0.01-0.15,0.04-0.21,0.06-0.32l-1.77-63.23c-0.11-0.1-0.2-0.14-0.31-0.26c0.1-0.02,0.2-0.01,0.3-0.03l-1.76-62.66l32.24,0.44
		c0.26,0,0.52,0,0.77,0c-0.01,0.01-0.02,0.02-0.03,0.04c-1.35,2.21-1.24,4.97-1.08,7.55c0.07,1.18,0.14,2.36,0.21,3.53
		c0.08,1.43,0.17,2.85,0.39,4.26c0.01,0.08,0.03,0.16,0.04,0.24l0,0.11c0.01,0.01,0.01,0.03,0.02,0.04c0.1,0.56,0.18,1.11,0.24,1.67
		c-0.06,0.2-0.13,0.38-0.22,0.52l0.05,2.8c0.06,0.04,0.11,0.12,0.17,0.17c0,0.11,0.02,0.22,0.02,0.33
		c-0.06,0.01-0.12,0.03-0.18,0.05l0.03,1.64c0.07,0.11,0.15,0.2,0.17,0.38c0.03,0.33-0.03,0.62-0.15,0.89l0.1,5.24h0.08
		c-0.03,0.02-0.06,0.03-0.08,0.04l0.04,2.18h0.72c-0.27,0.18-0.49,0.32-0.71,0.47l0.08,4.27c0.16,0.15,0.28,0.36,0.29,0.72
		c0.01,0.31-0.11,0.47-0.27,0.59l0.03,1.57c0.3,0.43,0.36,1.04,0.24,1.77c0.54,0.57,0.32,0.96-0.18,1.29l0.01,0.79
		c0.08,0.33,0.15,0.66,0.23,0.99c0.6,0.44,0.5,0.88,0,1.32c-0.06,0.24-0.12,0.49-0.18,0.73l0.02,1.33c0.02,0.17,0.04,0.34,0.01,0.47
		l0.16,8.39c0.04,0.13,0.04,0.24,0.01,0.34l0.63,33.66c0,0,0.01,0,0.02,0.01h-0.02l0.26,14.04c0.23,0.22,0.51,0.48,0.92,0.83
		c-0.31,0-0.6,0-0.91-0.01l0.06,2.97c0.05,0.08,0.11,0.14,0.15,0.23c-0.05,0-0.1,0-0.15,0l0.2,10.89c0.04,0.03,0.08,0.03,0.11,0.06
		c-0.03,0.1-0.07,0.15-0.11,0.23l0.12,6.3c0.02,0.09,0.07,0.13,0.07,0.24c0,0.1-0.05,0.13-0.06,0.22l0.07,3.61
		c0.08,0.08,0.17,0.13,0.24,0.25c-0.07,0.12-0.15,0.16-0.23,0.25l0.04,2.2c0.18,0,0.32,0,0.51,0c-0.17,0.33-0.33,0.52-0.5,0.73
		l0.06,3.18c0.11,0.12,0.25,0.18,0.35,0.35c-0.08,0.23-0.2,0.38-0.33,0.52l0.05,2.73c0.15,0.13,0.29,0.3,0.39,0.55
		c-0.12,0.13-0.25,0.32-0.37,0.48L316.18,211.24z M315.87,68.21L315.87,68.21c0.11-0.2,0.22-0.4,0.35-0.58
		c0.12-0.18,0.26-0.35,0.45-0.46c0.14-0.08,0.29-0.11,0.45-0.14c0.19-0.04,0.39-0.08,0.58-0.12c0.03,0.09,0.06,0.12,0.09,0.22
		c0.25,0.11,0.5,0.22,0.75,0.32l0.16,0.06c4.41-2.47,6.13-1.57,6.4,2.92c2.02,33.85,2.2,67.75,3.39,101.63
		c0.58,16.56,0.74,33.13,1.24,49.69c0.07,2.49-0.79,2.89-2.99,2.93c-8.14,0.15-8.11,0.22-8.31-7.92
		C317.17,167.24,316.43,117.73,315.87,68.21z M324.84,64.52c-1.93,1.61-5.11,0.66-7.72,0.2c-2.84,0.01-3.8-1.32-3.59-4.18
		c0.27-3.67,0.17-7.37,0.04-11.05c-0.06-1.68,0.43-2.19,2.1-2.18c6.23,0.02,12.45-0.06,18.68-0.17c1.85-0.03,3.03,0.39,2.54,2.57
		c0.63,4.24,0.45,8.48,0.36,13.1C332.56,60.69,328.72,61.27,324.84,64.52z M336.76,45.22c-5.23,1.25-10.53,0.34-15.78,0.39
		c-3.99,0.04-8.04,0.87-12-0.4c-5.84-0.04-11.67-0.09-17.51-0.13c-9.2,0.07-18.4,0.15-27.6,0.2c-0.6,0-1.36,0-1.41-0.87
		c-0.07-1.09,0.83-1.14,1.55-1.17c1.77-0.08,3.54-0.07,5.31-0.1c1.27-0.35,2.53-0.33,3.8,0.01c0.5,0,1.01,0.01,1.51,0.01
		c0.27,0.02,0.54,0.04,0.81,0.05l12.97-0.03c0.27-0.01,0.54-0.02,0.82-0.03l2.23,0.04c1.29-0.01,2.57-0.02,3.86-0.02
		c0.25,0.01,0.5,0.02,0.75,0.03l1.65,0.08c7.72-0.15,15.44-0.39,23.15,0.14c4.84-0.02,9.68-0.07,14.52-0.05
		C336.48,43.37,338.34,43.08,336.76,45.22z M274.15,66.49c2.58,0.23,5.18-0.71,5.26,3.73c0.6,30.46,1.36,60.91,2.25,91.36
		c0.51,17.58,1.36,35.15,2.05,52.72c0.01,0,0.03,0,0.04,0c0.03,0.47,0.07,0.93,0.13,1.39c0,0.03,0.02,0.07,0.02,0.1h-0.07
		c0.05,1.53,0.17,3.06,0.14,4.58c-0.03,1.45,1.48,3.52,0.05,4.18c-1.69,0.78-3.98,0.41-5.99,0.33c-1.61-0.06-1.03-1.5-1.1-2.38
		c-1.69-23.51-3.11-47.04-3.73-70.61c-0.72-27.14-1.42-54.28-2.2-81.41C270.94,68.05,270.81,66.19,274.15,66.49z M340.11,169.6
		c0.03,0.37,0.04,0.75,0.05,1.13c0.01,0.17,0.02,0.33,0.03,0.5c0,0.03,0.01,0.06,0.01,0.09c0.08,0.5,0.15,1.06,0.2,1.63
		c0.42,0.89,0.54,2.29,0.55,4.64c0.02,2.81-1.98,2.07-3.45,2.13c-3.31,0.12-3.86,0.06-4.01-2.87c-0.05-0.15-0.14-0.28-0.17-0.43
		c-0.28-1.28-0.25-2.63-0.08-3.92c0.06-0.42,0.13-0.83,0.19-1.25c0.01-0.11,0.03-0.22,0.04-0.33c0.02-0.18,0.03-0.36,0.04-0.54
		c0.01-0.25,0.02-0.5,0.01-0.75c0-0.09-0.01-0.18-0.02-0.27c0-0.01,0-0.01,0-0.02c-0.01-0.06-0.04-0.18-0.06-0.28
		c-0.35-0.53-0.54-1.29-0.58-2.35c-0.14-3.39,2.18-2.45,3.75-2.6c3.45-0.31,3.12,2.88,3.35,4.66c0.01,0.05-0.01,0.08,0,0.13
		C340,169.14,340.08,169.35,340.11,169.6z M343.71,186.9c1.16,0.11,2.81-0.31,2.68,1.75c-0.09,1.46-0.47,3-2.2,3.12
		c-2.92,0.2-5.86,0.2-8.78,0.1c-1.86-0.07-1.49-1.74-1.64-2.92c-0.01-0.09,0.01-0.15,0-0.23c-0.1-0.48-0.15-0.98-0.12-1.46
		c0.03-0.53,0.1-1.05,0.06-1.58c-0.05-0.67-0.03-1.32,0.04-1.97c-0.06-0.29-0.1-0.62-0.09-1.01c0.07-3.03,2.4-1.92,3.93-2.07
		c1.98-0.19,4.06-0.17,4.16,2.39c0.01,0.09,0.05,0.17,0.05,0.26c0,0.24,0.02,0.48,0.04,0.72c0.03,0.18,0.08,0.36,0.13,0.53
		c0.16,0.28,0.34,0.54,0.52,0.81c0.29,0.43,0.56,0.93,0.67,1.45c0.01,0.04-0.01,0.07,0,0.11
		C343.35,186.9,343.53,186.89,343.71,186.9z M334.13,198.03c0-0.02-0.01-0.02-0.02-0.1c-0.05-0.34-0.1-0.69-0.13-1.03
		c-0.02-0.3,0.04-0.59,0.07-0.89c-0.02-0.14-0.05-0.25-0.05-0.41c0-1.41,0.89-1.61,2.02-1.61c2.53-0.02,5.06-0.11,7.59-0.11
		c1.63,0,2.79,0.88,2.73,2.5c0,0.02-0.01,0.02-0.01,0.04c0.15,0.49,0.25,1.01,0.29,1.49c0.02,0.25,0.03,0.5,0.05,0.76
		c0,0.06,0.01,0.12,0.01,0.18c0,0.04,0.02,0.17,0.03,0.23c0.02,0.11,0.07,0.22,0.09,0.33c0,0.01,0,0.01,0,0.01c0,0,0,0,0,0
		c0.04,0.09,0.08,0.19,0.12,0.28c0.1,0.19,0.2,0.39,0.26,0.63c0,0.01,0.01,0.01,0.01,0.02c0.7,1.92,0.54,4.03,0.75,6.04
		c0.09,0.31,0.15,0.64,0.17,1.04c0.05,1.48-0.61,2.05-2,2.06c-3.16,0-6.31-0.02-9.47,0.07c-1.74,0.05-2.19-0.83-2.3-2.23
		c-0.02-0.11-0.07-0.22-0.07-0.34c0-2.03-0.18-4.05-0.23-6.08c-0.02-0.95,0.14-1.88,0.1-2.83
		C334.13,198.05,334.13,198.06,334.13,198.03z M336.23,224.51c-1.04-0.03-2.76,0.66-2.76-1.52c0-0.3,0.09-0.49,0.14-0.73
		c-0.16-1.02,0.05-2.02,0.35-2.99c0.2-0.64,0.35-1.29,0.49-1.95c0-1.01-0.22-2.07-0.08-3.08c0.01-0.1,0.05-0.18,0.07-0.27
		c0-0.05-0.02-0.09-0.02-0.14c-0.04-3.28,2.43-2.14,4.07-2.36c1.12-0.15,2.27-0.03,3.41-0.03v0.06c1.01,0,2.02-0.01,3.03,0
		c2.82,0.03,4.22,1.09,4.29,3.16c0.01,0.06,0.04,0.12,0.05,0.18c0.15,1.19,0.27,2.43,0.7,3.56c0.37,0.98,1.09,1.93,1.61,2.87
		c0.1,0.18,0.13,0.36,0.17,0.54c0.63,0.56,1.16,1.37,1.5,2.56c-0.81-0.25-1.61-0.42-2.4-0.54c-0.69,0.42-1.57,0.42-2.21-0.2
		C344.43,223.51,340.35,224.64,336.23,224.51z M443.76,185.71c2.71,3.82,5.03,7.09,7.61,10.72c-1.96,0.24-4.21,1.22-5.16-0.6
		C444.71,192.95,441.54,190.27,443.76,185.71z M442.44,200.73c0.76,0,1.53,0.01,2.29,0.03c1.17,0.04,2.62,0.12,2.52,1.61
		c-0.08,1.23-1.5,1.1-2.5,1.11c-6.24,0.04-12.47,0.11-18.71,0.09c-13.74-0.04-27.49-0.13-41.23-0.2c-1.07,0-2.13,0.01-3.2,0.01
		c-4.9,0.01-9.79,0.02-14.69,0.02c-4.44-0.12-8.88-0.23-13.33-0.35c-0.98-0.17-1.61-0.75-1.66-1.75c-0.05-1,0.82-0.69,1.34-0.75
		c8.01-0.88,16.02-0.67,24.04-0.03c0.97,0.12,1.9-0.74,2.9-0.14C400.94,200.5,421.69,200.62,442.44,200.73z M434.68,185.05
		c0.31,2.25,1.04,4.44,1.51,6.68c1.38,6.61,2.25,5.82-4.91,6.27c-3.55,0.22-7.13,0.15-10.69,0.14c-2.06,0-4.54,0.62-4.7-2.76
		c-0.01-0.32-0.64-0.83-1.03-0.87c-0.55-0.06-0.9,0.5-0.85,1.03c0.31,2.86-1.68,2.53-3.44,2.54c-8.66,0.02-17.32,0.06-25.98,0.06
		c-3.02,0-6.08,1.34-9.05-0.26c-7.1,0.34-14.19-0.27-21.28-0.42c-2.92-0.06-4.11-1.48-4.46-4.05c-0.14-1-0.32-2.05-0.19-3.03
		c0.21-1.55-1.44-4.03,1.13-4.45c2.21-0.36,5.09-1.43,6.62,1.86c0.9,1.91,1.3,0.67,1.51-0.46c-0.36-2.12,1.2-1.88,2.41-1.86
		c7.75,0.12,15.5,0.45,23.24,0.39c3.04-0.03,0.78,3.24,3.09,3.66c-1.5-4.04,0.92-3.79,3.65-3.72c7.73,0.2,15.47,0.21,23.2,0.19
		c0.69,0,3.37,1.22,1.72-1.62c-5.66,0.01-11.32,0.01-16.98,0.04c-8.99,0.05-17.98,0.13-26.96,0.2c-1.36,0.01-2.88,0.4-3.4-1.5
		c-3.78,2.04-7.72,0.31-11.58,0.46c-2.91,0.01-5.82,0.02-8.73,0.01c-1.01,0-2.22,0.13-2.31-1.29c-0.09-1.5,1.13-1.42,2.14-1.42
		c11.64,0.01,23.29,0.03,34.93,0.05c0.75,0.01,1.5,0.02,2.25,0.03c0.27,0.01,0.54,0.02,0.81,0.03c3.82,0.02,7.64,0.03,11.46,0.05
		c0.51,0,1.01,0.01,1.52,0.01c1.03,0,2.06,0,3.09,0c3.63-0.4,7.25-0.4,10.85,0.2c0.96,0.03,1.93,0.06,2.89,0.09
		c4.71,0.02,9.42,0.08,14.13,0.06C432.85,181.37,434.31,182.36,434.68,185.05z M427.81,176.41c1.07,0.01,2.78-0.42,2.86,1.02
		c0.08,1.61-1.77,1.1-2.72,1.17c-12.09,0.88-24.2,0.04-36.29,0.28c-6.36,0.12-12.73-0.07-19.1-0.13c-6.45,0.46-12.9,0.34-19.36,0.01
		c-2.02-0.07-4.04-0.11-6.06-0.21c-0.98-0.05-1.74-0.5-1.73-1.61c0.01-1.28,0.99-1.3,1.89-1.31c1.77-0.02,3.56-0.13,5.28,0.47
		c5.64-0.01,11.28-0.02,16.92-0.04c1.57-0.01,3.14-0.07,3.09,2.19c0.54-2.15,1.95-2.47,4.03-2.44
		C393.68,176.09,410.75,176.22,427.81,176.41z M414.57,159.8c0.76,3.6,1.54,7.19,2.44,10.76c0.62,2.5,0.15,3.39-2.77,3.45
		c-17.06,0.33-34.12,0.34-51.18,0.16c-4.43-0.05-8.85-0.04-13.25-0.68c-3.2,0.47-4.86-0.71-5.2-4.14c-0.23-2.34-1.09-4.66-3.09-6.27
		c-0.89-4.92-0.6-5.28,4.12-5.32c1.13-0.01,2.25-0.04,3.38-0.06c1.2,0.02,2.4,0.05,3.6,0.07c1.5,0.05,3.01,0.1,4.51,0.16
		c0.26,0.08,0.52,0.15,0.78,0.23c0.01,0.17,0.09,0.29,0.24,0.37c0.15-0.11,0.3-0.12,0.47-0.03l2.66-0.64
		c0.2-0.17,0.39-0.18,0.59-0.01c9.16,0.12,18.34,0.2,27.46-0.14c7.44-0.28,14.83,0.62,22.24,0.01
		C413.2,157.59,414.21,158.08,414.57,159.8z M413.04,153.75c-0.64,1.93-1.96,1.56-3.02,1.54c-21.64-0.58-43.24,0.86-64.87,0.8
		c-0.51,0-1.02-0.04-1.53-0.03c-1.29,0.04-2.33-0.3-2.34-1.82c-0.01-1.75,1.4-1.14,2.23-1.14c18.58-0.04,37.16-0.25,55.73,0.12
		C403.72,153.29,408.25,153.86,413.04,153.75z M398.75,143.71c0.45,1.3,0.72,2.67,1.04,4.01c0.52,2.13-0.27,3.14-2.51,2.86
		l-50.14,0.01c-3.29,0.01-6.59-0.09-9.88,0.06c-2.22,0.1-3.01-0.66-3.31-2.93c-1.02-7.79-1.12-7.77,6.64-7.87
		c0.88-0.01,1.76-0.17,2.64-0.26c-2.5-1.91-5.4-0.63-8.1-0.99c-1.44-0.19-3.05-0.08-2.87-2.08c0.16-1.79,1.8-1.01,2.75-1.01
		c18.2,0.04,36.39,0.23,54.59,0.15c2.27-0.01,4.16,2.19,6.49,0.79C398.59,138.27,397.91,141.27,398.75,143.71z M393.07,130.36
		c0.91,0.04,2.36,0.04,2.32,1.37c-0.04,1.34-1.45,1.19-2.37,1.2c-5.81,0.04-11.62,0-17.42-0.01c-2.03,0.01-4.07,0.03-6.1,0.04
		c-0.25,0.01-0.5,0.01-0.76,0.02c-8.92,0-17.85,0-26.77,0l-0.78,0c-0.51,0-1.01,0.01-1.52,0.01c-1.53,0-3.06-0.01-4.59-0.01
		c-0.76,0-1.52,0-2.28,0c-0.51,0.12-0.84-0.01-0.84-0.61c-0.93-2.28,0.59-2.23,2.1-2.22c16.4,0.01,32.8,0.01,49.2,0.02
		C386.52,130.21,389.8,130.21,393.07,130.36z M380.92,119.1c0.01,0.64,0.06,1.28,0.16,1.9c0.34,2.22,1.75,5.46,0.82,6.43
		c-1.61,1.66-4.78,0.74-7.3,0.85c-2.57,0.11-5.66,0.91-6.21-1.19c-0.49,1.65-3.02,1.37-5.56,1.31c-8.38-0.21-16.78,0.6-25.16-0.29
		c-1.24,0.12-2.48,0.22-3.71,0.35c-1.9,0.2-2.79-0.54-2.72-2.54c0.06-1.63-0.07-3.27-0.17-4.9c-0.33-5.13-0.34-5.13,5.16-4.63
		c13.88-0.02,27.77,0,41.65-0.11C380.04,116.26,380.9,117.07,380.92,119.1z M374.47,111.72c1.27,0,2.55,0.05,3.81,0.16
		c0.9,0.08,1.93,0.29,1.84,1.46c-0.08,1.02-1.11,0.76-1.8,0.9c-0.12,0.02-0.25,0.02-0.38,0.01c-14.88-0.09-29.77,0.8-44.65-0.06
		c-1.17-0.07-2.52,0.18-4.3-1.73c5.84-0.26,10.77-0.63,15.71-0.68C354.61,111.68,364.54,111.73,374.47,111.72z M369.13,101.09
		c1.76,11.04,2.88,8.6-6.79,8.96c-4.7,0.17-9.42,0.11-14.13-0.01c-1.12-0.03-3,1.07-3.22-1.36c-0.02-0.26-0.18-0.77-0.59-0.18
		c-2.3,3.37-5.73,1.04-8.56,1.7c-3.4,0.87-5.35-0.19-5.42-3.96c-0.02-1.13-0.37-2.25-0.5-3.37c-0.54-4.51-0.53-4.51,4.2-4.27
		c10.56-0.01,21.12,0.02,31.68-0.07C367.77,98.51,368.79,99.01,369.13,101.09z M358.25,84.82c0.23,2.49,1.95,5.42,1.1,7.3
		c-1.06,2.37-4.47-0.27-6.71,0.81c-0.23,0.35-0.47,0.35-0.71,0.01c-4.17-0.04-8.34-0.09-12.51-0.13c-0.26,0.37-0.52,0.75-0.78,1.12
		c8.24,0.09,16.49,0.18,24.74,0.29c1.01,0.01,2.03,0.08,3.01,0.3c0.36,0.08,0.8,0.65,0.84,1.03c0.07,0.61-0.54,0.73-1.05,0.76
		c-0.38,0.03-0.76,0.04-1.14,0.03c-11.55-0.14-23.1,0.34-34.63-0.7c-0.78-0.07-2.06,0.34-2.07-0.93c0-0.86,1.24-0.47,1.85-0.82
		l-0.05-0.26c-0.66-3.13-0.54-6.3-0.51-9.46c-1.17-1.59-0.88-2.31,1.19-2.63c4.66-0.73,9.31-0.31,13.96-0.26
		c3.15,0.03,6.29,0.39,9.43,0.6C356.64,81.37,357.99,82.11,358.25,84.82z M344.15,66.72c4.08,0.33,8.35,7.43,7.29,11.43
		c-0.37,1.4-1.5,1.15-2.44,1.17c-2.66,0.05-5.33,0.02-7.99,0.02v0.12c-1.27,0-2.55,0.13-3.8-0.03c-2.16-0.26-4.79,1.19-6.39-1.1
		c-2.05-2.94-3.23-6.3-3.36-9.95c-0.05-1.55,0.97-1.92,2.24-1.91C334.51,66.52,339.35,66.34,344.15,66.72z M338.14,31.62
		c-0.09,1.26,0.12,2.65-1.82,2.67c-6.29,0.05-12.59,0.09-18.88,0.22c-1.63,0.03-1.39-0.96-1.47-1.97c-0.11-1.43,0.37-2.05,1.9-2.01
		c3.17,0.09,6.34,0.03,9.51,0.03v-0.33c2.91,0,5.83,0.01,8.74,0C337.14,30.22,338.25,30,338.14,31.62z M321.72,6.04
		c1.19-0.27,2.5-0.03,3.76,0c1.07,0.02,1.95,0.18,1.97,1.63c0.02,1.5-0.86,1.59-1.94,1.59c-1.26,0-2.51,0-4.17,0
		c-0.93-0.93-3.94,2.05-4-1.4C317.29,4.71,320.16,6.39,321.72,6.04z M262.47,7.29c0.01-1.53,1.02-2.54,2.36-2.41
		c0.7,0.07,1.45,0.16,2.09,0.43c1.01,0.06,2.38-0.34,3.29-0.3c1.7,0.07,3.52,0.15,5.21,0.39c0.78,0.11,1.51,0.31,2.2,0.6
		c0.53-0.01,1.06-0.04,1.59-0.08c0.91-0.08,1.64,0,2.21,0.21c0.23-0.07,0.47-0.12,0.74-0.12c0.19,0,0.36,0.03,0.52,0.06
		c0.45-0.15,0.93-0.24,1.4-0.2c0.29,0.02,0.55,0.09,0.8,0.18c0.51-0.16,1.2,0.03,1.73,0.02c8.39-0.02,16.78-0.01,25.17,0.03
		c1,0,2.03,0.15,2.98,0.42c0.93,0.27,0.85,1.14,0.68,1.91c-0.17,0.76-0.64,0.93-1.4,0.79c-5.38-0.96-10.83-0.07-16.24-0.28
		c-3.56-0.14-7.45-0.34-11.13,0.38c-0.22,0.28-0.45,0.37-0.69,0.33c-0.41,0.55-1.03,0.94-1.69,0.98c-0.06,0.01-0.11,0.02-0.17,0.03
		c-0.18,0.16-0.36,0.31-0.55,0.47c2.24-0.06,4.49-0.11,6.73-0.17c2.43-0.45,4.85-0.4,7.28-0.01c0.49,0,0.98,0.01,1.46,0.01
		c1.06-0.02,2.11-0.04,3.17-0.06c0.99-0.02,1.98-0.04,2.97-0.06c0.28,0,0.56-0.01,0.84-0.01c0.74,0,1.49-0.01,2.23-0.01
		c1.32-0.07,2.76-0.86,3.8,0.65l0.07,0.13c0.5-0.06,1.01-0.12,1.51-0.17c6.74-0.09,13.47-0.11,20.21-0.32
		c1.81-0.06,2.05,0.75,2.21,2.22c0.2,1.85-0.81,2.19-2.24,2.23c-14.38,0.4-28.75,0.95-43.13,0.34c-6.71,0.57-13.55-0.83-20.15,1.55
		c1.36,0.08,2.73,0.17,4.09,0.25c6.88,0,13.76,0,20.64,0c2.32,0.03,4.63,0.05,6.95,0.08c9.02-0.13,18.04-0.29,27.06-0.36
		c0.96-0.01,2.68-0.63,2.65,1.17c-0.03,1.65-1.68,1.2-2.72,1.23c-9,0.23-18.02-0.34-27,0.75c0.61,0.75,1.17,1.51,1.6,2.32
		c1.83-0.01,3.57-0.32,5.38-0.05c0.87-0.15,2.08-0.15,3.81-0.14c2.24,0.02,4.48,0.28,6.73,0.43c1.68-0.03,3.36-0.05,5.04-0.08
		c0.46-0.07,0.93-0.11,1.41-0.11c0.59-0.1,1.19-0.07,1.77,0.06c0.93-0.02,1.85-0.03,2.78-0.04c1.76-0.03,3.22-0.03,3.16,2.52
		c-0.06,2.39-1.01,2.8-3.2,2.93c-0.8,0.05-1.32-0.05-1.66-0.25c-0.03,0.01-0.05,0.02-0.08,0.03c-0.99,0.2-1.92,0.23-2.77,0
		c-1.72,0.87-4.27-0.18-6.21,0.19c-3.62,0.62-7.24,1.09-10.85,0.55c-6.08-0.5-12.49,0.41-18.52,0.17c-0.31-0.01-0.58-0.08-0.83-0.18
		c-7.29,0.02-14.58-0.08-21.88-0.09c-1.56,0-3.24,0.39-3.14-2.01c0.06-1.53-0.59-3.69,1.91-3.78c0.82-0.03,1.77-0.21,2.6-0.06
		c1.03-0.06,2.06-0.23,3.09-0.18c0.24,0.01,0.48,0.04,0.72,0.08c0.78-0.21,1.54-0.3,2.3-0.22c0.61-0.08,1.29-0.09,2.04-0.05
		c3.39,0.18,6.79-0.01,10.19,0.08c0.59,0.02,1.1,0.03,1.56,0.05c1.86-0.2,4.03-0.04,5.62-0.03c-0.71-2.87-2.48-2.85-8.38-2.76
		c-6.33,0.1-12.67,0.28-19,0.36c-0.93,0.01-2.33,0.22-2.37-1.2c-0.03-1,1-1.32,1.98-1.23c0.83-0.63,1.42-1.3-0.02-1.85
		c-0.58-0.22-1.25-0.18-1.88-0.27c-1.43-0.2-2.34-0.92-2.28-2.47c0.07-1.93,1.62-1.67,2.8-1.73c3.3-0.14,6.6-0.17,9.9-0.24
		c-0.09-0.62-0.48-0.98-0.92-1.28c-0.63-0.12-1.3-0.18-1.95-0.21c-0.53,0.08-1.06,0.14-1.47-0.03c-0.36,0-0.69,0-0.98-0.01
		c-1.55-0.05-3.19,0.54-4.72,0.16c-0.05,0-0.11,0-0.16,0C263.82,10.09,262.46,9.49,262.47,7.29z M262.96,30.07
		c7.19,0.55,14.32,0.35,21.48,0.3c2.8-0.02,6.89-0.6,10.02,0.34c6.1-0.04,12.2-0.08,18.29-0.14c1.32-0.01,2.43-0.17,2.47,1.83
		c0.01,0.64-0.08,1.09-0.25,1.42c0.16,0.53,0.15,1.1-0.07,1.6c0.07,0.2,0.1,0.41,0.12,0.62c0.43,0.43,0.67,1.02,0.7,1.63
		c6.87-0.8,13.75-0.12,20.62-0.2c1.62-0.02,2.05,0.93,2.01,2.09c-0.05,1.65-1.53,1-2.34,1c-14.89,0.02-29.78-0.04-44.66-0.07
		c-8.53-0.02-17.05,0.01-25.58,0c-1.02,0-2.04,0.01-3.05-0.12c-1.1-0.14-2-0.68-1.84-1.97c0.16-1.29,1.3-0.99,2.11-1.02
		c6.73-0.23,13.46,0.65,20.19-0.08c0.02-0.12,0.05-0.22,0.07-0.32c-0.44-0.49-0.57-1.13-0.45-1.75c-0.86,0.05-1.72,0.11-2.6,0.17
		c-5.58,0.41-11.68-0.15-17.26-0.57C259.9,34.62,259.89,29.84,262.96,30.07z M253.33,67.21c4.04-0.51,8.1-0.5,12.18-0.13
		c2.09,0.19,2.88,1.17,2.84,3.18c-0.22,10.67,1.87,8.43-7.86,8.78c-0.64,0.02-1.27,0-1.91,0c0-0.08,0-0.17,0-0.25
		c-2.67,0-5.33,0.02-8-0.01c-0.85-0.01-1.79,0.12-2.34-0.86C246.81,75.35,250.38,67.57,253.33,67.21z M239.25,90.34
		c0.65-2.02,1.09-4.12,1.62-6.18c-0.18-2.29,0.99-3.22,3.17-3.2c7.49,0.08,14.99,0.17,22.48,0.21c1.56,0.01,2.52,0.38,1.94,2.2
		c-0.15,0.47-0.31,0.94-0.46,1.42c1.62,5.98,0.38,7.81-5.41,7.83c-7.09,0.02-14.18-0.07-21.27-0.02
		C239.63,92.6,238.56,92.48,239.25,90.34z M233.88,94.24c10.93,0.06,21.87-0.51,32.79,0.61c1.05,0.11,2.2,0.11,2.16,1.52
		c-0.05,1.55-1.35,1.2-2.29,1.2c-5.59,0.02-11.19,0.01-16.78,0.01v-0.16c-5.21,0-10.43,0.05-15.64-0.05
		c-1.05-0.02-2.89,0.88-2.97-1.17C231.08,94.64,232.49,94.23,233.88,94.24z M228.48,105.9c0.38-1.46,0.68-2.95,1.15-4.38
		c0.39-1.21,0.34-2.77,2.45-2.67c1.85,0.08,3.55,0.04,4.29,2.16c-0.24-1.72,0.9-1.9,2.11-1.72c4.35,0.67,8.99-1.59,13.13,1.27
		c3.85-2.57,8.1-0.75,12.16-1.01c1.72-0.11,4.42-1.04,5.04,1.21c0.76,2.73,0.7,5.79-0.2,8.63c-0.34,1.09-1.47,0.79-2.32,0.79
		c-9.66,0-19.32-0.11-28.97,0.03c-2.55,0.04-2.55-1.3-2.5-3.03c-1.35,0.5-0.28,2.63-2.31,2.95
		C228.48,110.76,227.46,109.85,228.48,105.9z M220.15,111.93c13.6,0.44,27.22-0.68,40.81,0.49c2.15,0.18,4.33,0.02,6.49,0.06
		c0.7,0.01,1.6-0.13,1.65,1.01c0.04,1.06-0.68,1.22-1.5,1.26c-0.25,0.01-0.51,0.01-0.76,0.01c-16.66,0-33.31,0-49.99,0
		C216.8,112.27,218.38,111.87,220.15,111.93z M216.13,116.42c0.31-0.79,1.05-0.8,1.91-0.5c2.22,0.76,4.56,0.67,6.88,0.56l3.08,0
		c1.27,0,2.54,0,3.8,0.01l6.14,0c0.5,0,1.01,0,1.51,0c2.05,0.02,4.1,0.05,6.14,0.07c0.5,0,1,0.01,1.5,0.01
		c6.89-0.04,13.78-0.08,20.67-0.12c1.27,0.11,1.59,0.88,1.39,2.01c0.42,7.95,0.42,7.95-7.4,7.89c-2.52-0.02-5.03-0.05-7.54-0.07
		c-1.02-0.01-2.17,0.11-1.69-1.55c-0.19-0.14-0.38-0.28-0.57-0.41c-0.04,0.74,0.36,1.71-1.03,1.71c-1.27-0.06-2.54-0.11-3.81-0.17
		c-10.25,0.12-20.5,0.25-30.74,0.34c-0.9,0.01-2.21,0.36-2.14-1.3C214.35,121.95,215.06,119.13,216.13,116.42z M209.29,128.53
		c18.83-0.09,37.66-0.9,56.48-0.04c1.11,0.05,3.28-1.02,3.05,1.47c-0.21,2.19-2.19,1.2-3.39,1.21c-9.41,0.07-18.83,0.04-28.24,0.04
		c0,0.06,0,0.12,0,0.18c-9.29,0-18.57,0.02-27.86-0.03c-1.11-0.01-2.96,0.79-3.1-1.05C206.08,128.39,207.87,128.53,209.29,128.53z
		 M202.05,144.68c0.07-0.24,0.11-0.5,0.18-0.74c1.07-3.52,1.16-8.22,3.53-10.22c2.14-1.81,6.78-0.86,10.31-0.8
		c5.29,0.09,10.82,0.79,15.84,0.15c8.38-1.08,16.65,0.03,24.93-0.57c0.95-0.07,2.45-0.7,2.61,1.21c1.72-1.1,8.98-1.7,9.19-0.65
		c0.6,3.1,1.48,6.37-0.8,9.28c1.16,4.3,0.99,4.71-3.24,4.48c-3-0.17-6.12,0.99-9.01-0.67c-0.26-0.24-0.52-0.49-0.78-0.73
		c-0.02,1.84-1.42,1.46-2.47,1.47c-4.2,0.06-8.4,0.09-12.6,0.03c-0.92-0.01-2.67,0.71-2.36-1.32c0.22-1.44-0.09-3.5,2.51-3.42
		c4.96,0.15,9.92,0.21,14.88,0.3c1.35-0.07,2.7-0.14,4.24-0.22c-0.93-0.85,0.24-2.25-1.06-2.87c-1.29,3.75-4.16,0.96-6.24,1.46
		h-24.04c-0.01,0.16-0.01,0.31-0.02,0.47c2.42,0.12,4.83,0.22,7.25,0.38c0.94,0.06,2.55-0.08,1.89,1.44
		c-0.54,1.26,0.91,3.77-1.97,3.74c-10.45-0.09-20.9-0.21-31.35-0.3C202.01,146.59,201.66,145.95,202.05,144.68z M185.96,161.31
		c0.61-2.29,0.9-4.69,2.12-6.79c1.14-6.16,1.14-6.21,7.05-6.11c14.78,0.25,29.56,0.55,44.33,0.82c2.04,0.05,4.09,0.1,6.13,0.14
		h17.54c-0.72,3.48-1.12,5.99-4.61,6.67c-2.43,0.47-3.22,2.82-3.68,4.91c-0.43,1.95-1.25,2.65-3.14,2.11
		c-0.92,0.05-1.84,0.1-2.76,0.14c-0.35,0.02-0.69,0.04-1.04,0.06c-0.79,0.02-1.58,0.03-2.36,0.05c-7.66,0.53-15.33,0.28-23,0.22
		c-6.52,0.31-13.04,0.63-19.56,0.93c-1.38,0.06-2.86,0.24-3.26-1.68c-0.07-0.32,0.04-0.96-0.72-0.38c-3.77,2.91-8.1,0.68-12.15,1.16
		C185.26,163.76,185.73,162.15,185.96,161.31z M178.01,166.11c15.13,0.04,30.26,0.07,45.39,0.1c10.93-0.04,21.85-0.1,32.78-0.11
		c1.02,0,2.42-0.47,2.52,1.4c0.07,1.46-0.78,1.63-1.93,1.63c-11.15-0.05-22.3,0.53-33.45-0.19c-0.26-0.01-0.5-0.06-0.74-0.15
		c-1.44,0.93-3.11,0.26-4.63,0.64c-0.19,0.31-0.38,0.32-0.58,0.01c-13.1-0.12-26.19-0.2-39.29-0.4c-1.17-0.02-3.23,0.97-3.42-0.95
		C174.45,166.03,176.44,166.1,178.01,166.11z M171.21,175.52c1-4.85,3.69-5.43,7.86-5.14c5.95,0.42,11.95,0.32,17.92,0.44
		c1.66,0.03,3.24,0.11,2.24,2.51c0.2,0.14,0.4,0.3,0.58,0.47c1.19-2.34,2.85-3.38,5.7-3.2c7.49,0.47,15,0.58,22.5,0.84
		c3.14-0.09,6.27-0.18,9.41-0.26l0.14-0.21l0.14,0.22l8.19,0.1c0.31-0.38,0.62-0.39,0.93,0l1.06,0.23c0.28-0.01,0.55-0.01,0.83-0.02
		l0.17-0.26c0.33-0.41,0.67-0.51,1.05-0.05c1.01,0.02,2.01,0.04,3.02,0.05c5.51,0.03,5.57,0.17,4.71,5.78
		c-0.31,2.06-1.09,3.13-3.37,2.98c-3.14-0.21-6.29-0.19-9.44-0.27c-16.15-0.09-32.3,0.25-48.44-0.33
		c-7.62-0.27-15.25-0.28-22.87-0.28C170.54,179.12,170.65,178.26,171.21,175.52z M170.63,180.76c23.57,0.29,47.15,0.46,70.72,0.67
		c3.82,0.03,7.65-0.01,11.47,0.13c1.19,0.04,3.21-0.85,3.29,1.33c0.09,2.41-2.01,2.2-3.64,2.21c-8.41,0.06-16.82,0.12-25.23,0.11
		c-17.84,0-35.68-0.02-53.53-0.09c-2.28-0.01-4.15,0.11-3.98,3.08c1.09-1.05,2.28-1.56,3.91-1.54c10.04,0.12,20.09,0.09,30.13,0.17
		c9.7,0.08,19.4,0.3,29.1,0.29c2.23,0,3.3,0.61,3.08,3.2c0.19-2.45,1.28-3.26,3.49-3.18c3.94,0.15,7.88,0.05,11.82-0.04
		c1.91-0.04,2.9,0.51,2.34,2.62c-0.19,0.73-0.36,1.51-0.33,2.25c0.11,3.34-1,4.68-4.77,5.01c-5.05,0.44-10.06,1.28-15.16,0.94
		c-1.28,0-2.57-0.01-3.85-0.01c-1.01,0.01-2.02,0.03-3.03,0.04l-32.91,0c-5.86,0.03-11.72,0.06-17.58,0.1
		c-2.82-0.03-5.63-0.06-8.45-0.08c-0.76,0-1.53-0.04-2.28,0.01c-2.41,0.16-3.11-0.77-2.35-3.13c1.13-3.5,2.26-7.02,2.97-10.62
		C166.44,181.31,167.95,180.72,170.63,180.76z M163,172.12c1.28,0.09,3.62,0.32,3.6,1.69c-0.03,1.72-2.28,2.36-3.71,3.33
		c-1.16-0.17-1.91-1-1.81-1.96C161.2,173.94,161.12,171.98,163,172.12z M150.31,194.62c1.17,0.1,2.06,1.74,1.65,2.62
		c-1.09,2.32-3.26,0.11-5.41,1.91C147.52,196.21,148.17,194.44,150.31,194.62z M142.89,199.77c-0.72,2.2-1.37,4.19-2.23,6.82
		c-1.45-3.33-3.89-4.81-7.3-6.04C136.91,199.18,139.83,199.82,142.89,199.77z M126.66,212.59c1.57,0.82,1.95,2.59,3.01,3.8
		c0.58,0.66,1.18,1.58,2.17,1.01c0.76-0.44,0.45-1.35,0.22-2.07c-0.38-1.21-0.77-2.41-0.43-3.76c1.31,0.42,1.39,1.72,1.87,2.63
		c1.88,3.56,1.38,4.37-2.61,4.66c-2.85,0.21-5.69,0.46-8.92,0.72C123.71,217,125.17,214.82,126.66,212.59z M177.38,249.5h-1.06
		c-0.46-0.07-0.92-0.17-1.28-0.17c-17.04,0.27-34.08-0.44-47.99,0.11c-13.31,0-23.49,0.02-33.67-0.04c-0.27,0-0.59,0.05-0.93,0.09
		h-1.13c-0.49-0.11-0.84-0.46-0.81-1.39c0.06-1.39,1.14-2.43,2.79-2.41c0.38,0.01,0.76-0.01,1.14-0.01
		c23.54,0.03,47.08-0.02,70.62,0.16c3.24,0.02,6.5,0.47,9.78,0.37c1.5-0.05,3.49,0.02,3.31,2.14
		C178.1,249.08,177.79,249.39,177.38,249.5z M172.41,240.18c2.63-3.33,5.9-5.4,10.42-5.21c4.55,0.2,9.12,0.08,13.68,0.09h5.28
		c-1.76,0.88-3.57,1.66-5.08,2.96c-0.42,0.78-1.21,1.56-1.2,2.33c0.06,5.23-3.35,4.33-6.28,3.39c-4.92-1.58-9.5,0.28-14.22,0.82
		c-1.44,0.17-3.33,0.99-4.22-0.46C169.87,242.61,171.53,241.31,172.41,240.18z M227.28,248.41c-0.05,0.41-0.15,0.77-0.27,1.09
		h-44.81c0.16-1.06,1.1-1.64,2.41-1.69c4.93-0.19,9.87-0.6,14.8-0.62c4.17-0.02,8.34-0.17,12.54,0.57c2.95,0.52,5.81-1.64,8.94-1.29
		c1.26,0.14,2.59-0.07,3.79,0.23C225.64,246.95,227.56,246.18,227.28,248.41z M236.81,242.06c-1.14,0.11-2.73-0.13-3.32,0.51
		c-3.5,3.81-7.17,2.6-10.94,0.74c-1.53-0.75-2.94-0.22-4.4,0.29c-5.93,2.04-11.79,0.67-17.63-0.53c-2.53-0.52-2.47-1.86-0.71-3.27
		c3.46-2.75,7.36-4.46,11.2-4.59c3.02,0.05,5.23,0.55,6.82,2.46c1.74,2.09,3.24,1.78,4.89-0.16c3.36-3.96,7.83-3.01,12.06-2.33
		c2.23,0.36,3.06,2.45,3.59,4.51C238.73,241.1,238.33,241.91,236.81,242.06z M241.06,232.71l0.02-0.02
		c-0.29,0.21-0.58,0.42-0.88,0.63c-0.76,0.52-1.5,0.37-2.23-0.08c-1.27,0.42-2.04-0.84-3.16-0.95c-0.78,0.01-1.62,0.38-2.27-0.37
		l-2.21,0.07c-2.53,0.42-5.2-0.57-7.65,0.7c-1.24,1.74-2.68,2.12-4.88,1.54c-4.42-1.16-8.87-1.1-13.47-0.21
		c-4.02,0.78-8.23,0.09-12.3-0.77c-0.25,0-0.5-0.01-0.74-0.01c-1.54,0-3.08-0.01-4.62-0.01c-1.64,0.98-1.25-2.52-2.98-1.34
		l-0.01,0.02c-0.01,0.54-0.24,0.82-0.81,0.69c-4.1,0.19-8.26-0.25-11.59,3.22c-1.21,1.26-3.2,1.34-3-1.49
		c0.11-1.61-0.14-3.29,0.8-4.77c0.35-1.92,1.96-1.45,3.03-1.35c4.18,0.4,8.63,0.67,12.53,0.48c4.76-0.24,9.64-0.03,14.44-0.43
		c1.93-0.16,4.03-0.6,5.9,0.54c0.8-0.01,1.6-0.01,2.39-0.02c6.35-1.04,12.73-0.49,19.1-0.46c1.76,0.02,3.52,0.04,5.28,0.07
		c1.04-0.15,2.09-0.49,3.12,0.06c2.02-0.01,4.04-0.01,6.06-0.02c1.58-0.13,4.03-0.65,4.29,0.94
		C245.6,231.81,242.87,232.05,241.06,232.71z M243,225.59c-2.28-0.18-4.59,0.01-6.88-0.04c-36.19-0.9-72.4-0.25-108.59-0.53
		c-1.23-0.01-2.58-0.38-3.61,0.72c1.13,1.7,2.99,1.31,4.62,1.59c1.28,0.02,2.56,0.04,3.84,0.06c0.68,0,1.64-0.33,1.21,1.01
		c-0.28,0.89-1.03,1.82,0.22,2.58c0,0-0.01,0.06-0.01,0.06c0.95-3.08,6.26-4.53,8.35-2.26c0.06,0.06-0.36,0.56-0.55,0.85
		c0.06,0.11,0.11,0.23,0.17,0.34c3.78-3.49,8.39-1.51,12.63-1.83c3.54-0.26,7.12,0.15,10.66-0.09c2.73-0.19,2.82,0.96,2.4,3.08
		c-1.07,5.33-1.01,5.32-6.67,5.35c-7.23,0.04-14.46,0.11-21.69,0.17c0.11,0.21,0.14,0.43,0.1,0.67c8.73,0.16,17.48,0.14,26.17,1.13
		c0.83,0.09,2.28-0.6,2.26,1.1c-0.02,1.36-1.02,2.08-2.29,2.04c-9.21-0.25-18.41,1.75-27.61,0.08c-1.26,0.34-2.43,1.06-3.81,0.82
		c-3.35,0.13-6.73,0.51-9.96-0.84c-1.24,0.82-2.5,1.41-3.82,0.13c-0.68,0.05-1.32-0.02-1.81-0.57c-0.67-0.11-1.34-0.22-2.01-0.34
		c-1.97-0.2-3.92-0.98-5.92-0.15c-2.99,2.48-6.43,2.98-10.14,2.27c-1.08,0.11-2.47,0.59-3.05-0.48c-0.74-1.38,0.37-2.49,1.34-3.45
		c0.7-1.43,1.97-1.23,3.21-1.14c1.79-0.32,3.58-0.52,5.39-0.18c0.75-0.02,1.5-0.04,2.25-0.05c2.56-0.38,5.12-0.42,7.69-0.13
		c0.5-0.03,1.01-0.06,1.52-0.09c1.08-0.09,2.15-0.17,3.23-0.26c-0.02-0.21,0.01-0.42,0.08-0.62c-4.52-0.24-4.55-0.25-3.03-4.51
		c0.59-1.64,1.33-3.23,2-4.84c0.11-4.26,2.14-5.51,6.47-5.49c34.67,0.18,69.34,0.1,104,0.04c3.94-0.01,7.89-0.45,11.83-0.5
		c1.07-0.02,3.1-1.14,2.95,1.46C246.01,224.63,245.22,225.77,243,225.59z M242.53,219.45c-1.05,0.3-2.27,0.04-3.41,0.04
		c-3.06,0-6.54,0.94-9.06-0.23c-3.1-1.44-3.7,2.03-6.44,1.7c-7.04-0.85-14.28,0.08-21.36-0.58c-19.38-1.8-38.77-0.44-58.15-0.78
		c-4.84-0.09-4.85,0-2.91-4.5c0.8-1.85,1.68-3.66,2.53-5.49c0.3-1.09,0.51-2.22,0.93-3.27c1.37-3.44,3.38-5.18,7.65-5.2
		c30.66-0.19,61.32-0.74,91.98-1.16c1.27-0.02,2.55-0.03,3.8,0.14c1.11,0.16,2.29,0.38,2.26,2c-0.04,1.78-1.32,1.59-2.42,1.6
		c-4.58,0.07-9.15,0.14-13.73,0.14c-7.5,0-15.01-0.06-22.51-0.09l-0.16,0.22l-0.15-0.23c-12.31-0.33-24.6,0.2-36.9,0.45
		c-0.83,0.02-1.83-0.21-2.35,0.81c8.76,0.98,17.56,0.66,26.34,0.74c9.58,0.09,19.16,0.03,28.73,0.05c4.22,0.01,8.43,0.06,12.65,0.09
		c0.94,0.01,1.78,0.13,2.29,0.8c1.59-2.15,4.25-0.59,6.29-0.68c2.21-0.11,1.83,2.17,1.52,3.54c-0.59,2.59-1.46,5.12-2.34,7.63
		C246.75,219.67,244.3,218.95,242.53,219.45z M248.65,226.81c-0.07-0.4-0.09-0.81-0.06-1.22c-0.18-0.61-0.19-1.26,0.03-1.91
		c0.29-0.83,0.76-1.52,1.28-2.22c0.2-0.26,0.4-0.52,0.56-0.8c0.04-0.06,0.07-0.13,0.1-0.19c0.01-0.04,0.02-0.07,0.04-0.11
		c0.05-0.18,0.17-0.43,0.2-0.52c0.11-0.35,0.27-0.68,0.39-1.02c0.04-0.59,0.18-1.13,0.36-1.64c0-0.16,0.02-0.34,0.07-0.56
		c0.48-2.22-0.55-5.98,3.64-5.96c4.19,0.02,8.38,0.33,12.58,0.48c1.36,0.05,3.04-0.2,2.98,1.51c0.12,0.24,0.19,0.5,0.17,0.78
		c-0.07,1.61,0.46,3.15,0.51,4.76c0.02,0.6,0.01,1.2,0.06,1.79c0.02,0.24,0.02,0.3,0.1,0.61c0.02,0.09,0.05,0.19,0.08,0.28
		c0.01,0.01,0.04,0.05,0.09,0.15c0.22,0.35,0.28,0.68,0.27,1c0.16,0.33,0.27,0.71,0.26,1.18c-0.07,1.78-1.38,1.52-2.48,1.57
		c-1.02,0.05-2.04,0.01-3.6,0.01c-2.17-0.25-4.19,0.28-6.58,2.32c-2.6,2.21-6.83,0.69-10.34,0.86
		C248.77,227.98,248.74,227.32,248.65,226.81z M353.21,247.71c-0.19,0.04-0.39,0.07-0.58,0.03c-0.08,0-0.14-0.05-0.21-0.07
		c-0.16,0.02-0.33,0.04-0.46,0.12c-0.53,0-1.07,0.01-1.6,0.01c-24.57-0.14-49.14-0.35-73.71-0.4c-8.13-0.02-16.28-0.55-24.39,0.37
		c-1.17,0.13-2.09,0.14-2.08-1.35c0.01-0.76,0.23-1.54,0.95-1.65c0.02-0.05,0.01-0.1,0.03-0.15c0.08-0.24,0.21-0.44,0.4-0.62
		c0.05-0.05,0.11-0.11,0.17-0.15c0.14-0.11,0.28-0.23,0.43-0.33c0.02-0.01,0.03-0.02,0.05-0.04c0.04-0.03,0.09-0.05,0.14-0.08
		c0.05-0.03,0.11-0.04,0.17-0.05c1.4-2.5,3.55-2,5.11-1.94c26.84,0.92,53.69,0.82,80.54,1.02c0.96,0.01,2.06,0.25,3.07-1.34
		c-1.64-0.1-3.01-0.24-4.38-0.26c-24.2-0.22-48.41-0.4-72.61-0.64c-2.66-0.03-5.34,0.11-7.97-0.65c-1.44-0.41-2.29-1.27-2.13-2.7
		c0.15-1.34,1.43-1.12,2.42-1.26c11.13-1.53,22.3-0.25,33.45-0.37c17.32-0.2,34.65-0.17,51.97-0.23c1.82-0.75,3.7,0.07,5.54-0.2
		c0.9-0.13,1.48,0.24,1.53,1.14c0.01,0.25-0.02,0.45-0.09,0.62c0.32,0.85,0.58,1.72,0.84,2.59c0.13,0.18,0.24,0.36,0.29,0.57
		c0.04,0.16,0.1,0.3,0.15,0.45c0.19,0.4,0.4,0.79,0.64,1.16c0.18,0.27,0.23,0.57,0.24,0.87c0,0.01,0,0.02,0.01,0.04
		c0.08,0.09,0.18,0.17,0.25,0.28c0.03,0.04,0.06,0.08,0.09,0.12c0.16,0.2,0.35,0.38,0.54,0.55c0.61,0.36,1.21,0.72,1.85,1.01
		c0.35,0.17,0.57,0.5,0.73,0.85c0.59,0,1.19,0.14,1.8,0.62C356.62,249.09,354.74,248.02,353.21,247.71z M356.14,221.53
		c-0.29-1.22,1.18-0.81,1.99-0.81c17.96-0.01,35.93-0.01,53.89-0.01c0,0.36,0,0.73,0,1.09c17.59,0,35.18,0,52.76,0
		c0.76,0,1.53,0.07,2.29,0.11c1.1,0.07,2.23,0.43,2.13,1.67c-0.1,1.15-1.36,0.91-2.18,0.93c-7.01,0.12-14.02,0.28-21.03,0.27
		c-27.15-0.01-54.3-0.08-81.45-0.15c-2.16-0.01-4.32-0.32-6.48-0.35C356.1,224.25,356.35,222.4,356.14,221.53z M362.38,234.73
		c-1.47-1.78-2.29-3.58-2.7-5.59c1.11-2.12,3.06-0.84,4.59-1.03c1.87-0.23,3.8,0,5.71,0.04c1.93,3.02,1.62,3.99-1.5,4.36
		C366.27,232.77,363.86,232.34,362.38,234.73z M374.44,240.55c-0.6,0.81-1.66,0.57-2.46,0.2c-2.26-1.04-4.47-2.17-6.7-3.27
		c3.08-1.31,5.89-1.56,8.37,0.48C374.4,238.59,375.21,239.51,374.44,240.55z M372.45,229.06c0.14-0.2,0.28-0.58,0.43-0.58
		c9.78-0.2,19.57-0.98,29.35,0.13c2.21,2.35,0.51,3.05-1.51,3.12c-3.02,0.1-6.06-0.08-9.09-0.27c-5.13-0.34-10.24-1.41-14.86,2.33
		C374.87,235.33,372.88,233.1,372.45,229.06z M501.64,249.36c-6.15-0.22-12.31,0-18.47,0.14h-12.52c-4.26-0.14-8.51-0.46-12.75-1.18
		c-7.77,1.28-15.55,1.68-23.36,0.35c-1.29-1.27-0.27-3.32-1.98-4.71c-1.99-1.61-3.11-3.91-6.2-1.45c-1.69,1.34-3.55-0.33-5.03-1.6
		c-1.5-1.28-3.06-2.79-4.21,0.38c-0.43,1.19-1.43,1.4-2.51,1.04c-4.22-1.41-7.43,0.31-10.13,3.33c-1.04,1.17-2.2,1.64-3.68,1.6
		c-1.78-0.05-3.59-0.25-5.35-0.07c-3.53,0.37-6.32-0.27-8.37-3.62c-1.75-2.85-4.45-4.12-7.88-2.45c-0.9,0.44-2.05,0.9-2.84-0.03
		c-0.8-0.93,0.05-1.94,0.41-2.81c1.32-3.18,3.98-4.61,7.21-4.8c3.43-0.19,7.45-1.12,10.19,0.27c4.34,2.22,7.63,1.06,11.74-0.03
		c3.21-0.85,7.13,0.17,9.75,3.15c1.13,1.28,1.54,1.32,2.92-0.2c2.68-2.94,11.6-2.48,13.42,0.99c2.48,4.73,6.72,6.12,10.92,7.99
		c4.12-1.44,8.23-1.11,12.34,0.01c14.74-0.49,29.45,0.48,44.17,0.85c1,0.03,2.07-0.09,2.88,0.7c0.46,0.45,0.81,1.02,0.6,1.69
		C502.71,249.54,502.09,249.38,501.64,249.36z"/>
</g>
</svg>
